<?xml version="1.0" encoding="UTF-8"?>
<!DOCTYPE score-partwise PUBLIC "-//Recordare//DTD MusicXML 4.0 Partwise//EN" "http://www.musicxml.org/dtds/partwise.dtd">
<score-partwise version="4.0">
  <work>
    <work-title>Untitled score</work-title>
    </work>
  <identification>
    <creator type="composer">Composer / arranger</creator>
    <encoding>
      <software>MuseScore 4.4.0</software>
      <encoding-date>2024-09-24</encoding-date>
      <supports element="accidental" type="yes"/>
      <supports element="beam" type="yes"/>
      <supports element="print" attribute="new-page" type="yes" value="yes"/>
      <supports element="print" attribute="new-system" type="yes" value="yes"/>
      <supports element="stem" type="yes"/>
      </encoding>
    </identification>
  <defaults>
    <scaling>
      <millimeters>6.99911</millimeters>
      <tenths>40</tenths>
      </scaling>
    <page-layout>
      <page-height>1596.77</page-height>
      <page-width>1233.87</page-width>
      <page-margins type="even">
        <left-margin>85.7252</left-margin>
        <right-margin>85.7252</right-margin>
        <top-margin>85.7252</top-margin>
        <bottom-margin>85.7252</bottom-margin>
        </page-margins>
      <page-margins type="odd">
        <left-margin>85.7252</left-margin>
        <right-margin>85.7252</right-margin>
        <top-margin>85.7252</top-margin>
        <bottom-margin>85.7252</bottom-margin>
        </page-margins>
      </page-layout>
    <appearance>
      <line-width type="light barline">1.8</line-width>
      <line-width type="heavy barline">5.5</line-width>
      <line-width type="beam">5</line-width>
      <line-width type="bracket">4.5</line-width>
      <line-width type="dashes">1</line-width>
      <line-width type="enclosure">1</line-width>
      <line-width type="ending">1.1</line-width>
      <line-width type="extend">1</line-width>
      <line-width type="leger">1.6</line-width>
      <line-width type="pedal">1.1</line-width>
      <line-width type="octave shift">1.1</line-width>
      <line-width type="slur middle">2.1</line-width>
      <line-width type="slur tip">0.5</line-width>
      <line-width type="staff">1.1</line-width>
      <line-width type="stem">1</line-width>
      <line-width type="tie middle">2.1</line-width>
      <line-width type="tie tip">0.5</line-width>
      <line-width type="tuplet bracket">1</line-width>
      <line-width type="wedge">1.2</line-width>
      <note-size type="cue">70</note-size>
      <note-size type="grace">70</note-size>
      <note-size type="grace-cue">49</note-size>
      </appearance>
    <music-font font-family="Leland"/>
    <word-font font-family="Edwin" font-size="10"/>
    <lyric-font font-family="Edwin" font-size="10"/>
    </defaults>
  <credit page="1">
    <credit-type>title</credit-type>
    <credit-words default-x="616.935484" default-y="1511.049022" justify="center" valign="top" font-size="22">Untitled score</credit-words>
    </credit>
  <credit page="1">
    <credit-type>subtitle</credit-type>
    <credit-words default-x="616.935484" default-y="1453.898908" justify="center" valign="top" font-size="14">Subtitle</credit-words>
    </credit>
  <credit page="1">
    <credit-type>composer</credit-type>
    <credit-words default-x="1148.145796" default-y="1411.049022" justify="right" valign="bottom">Composer / arranger</credit-words>
    </credit>
  <part-list>
    <score-part id="P1">
      <part-name>Voice</part-name>
      <part-abbreviation>Vo.</part-abbreviation>
      <score-instrument id="P1-I1">
        <instrument-name>Voice</instrument-name>
        <instrument-sound>voice.vocals</instrument-sound>
        </score-instrument>
      <midi-device id="P1-I1" port="1"></midi-device>
      <midi-instrument id="P1-I1">
        <midi-channel>1</midi-channel>
        <midi-program>53</midi-program>
        <volume>78.7402</volume>
        <pan>0</pan>
        </midi-instrument>
      </score-part>
    </part-list>
  <part id="P1">
    <measure number="1" width="282.96">
      <print>
        <system-layout>
          <system-margins>
            <left-margin>50</left-margin>
            <right-margin>-0</right-margin>
            </system-margins>
          <top-system-distance>170</top-system-distance>
          </system-layout>
        </print>
      <attributes>
        <divisions>8</divisions>
        <key>
          <fifths>0</fifths>
          </key>
        <time>
          <beats>4</beats>
          <beat-type>4</beat-type>
          </time>
        <clef>
          <sign>G</sign>
          <line>2</line>
          </clef>
        </attributes>
      <note default-x="80.21" default-y="-50">
        <pitch>
          <step>C</step>
          <octave>4</octave>
          </pitch>
        <duration>8</duration>
        <voice>1</voice>
        <type>quarter</type>
        <stem>up</stem>
        </note>
      <note default-x="130.45" default-y="-55">
        <pitch>
          <step>B</step>
          <octave>3</octave>
          </pitch>
        <duration>8</duration>
        <voice>1</voice>
        <type>quarter</type>
        <stem>up</stem>
        </note>
      <note default-x="180.69" default-y="-60">
        <pitch>
          <step>A</step>
          <octave>3</octave>
          </pitch>
        <duration>8</duration>
        <voice>1</voice>
        <type>quarter</type>
        <stem>up</stem>
        </note>
      <note default-x="230.92" default-y="-65">
        <pitch>
          <step>G</step>
          <octave>3</octave>
          </pitch>
        <duration>8</duration>
        <voice>1</voice>
        <type>quarter</type>
        <stem>up</stem>
        </note>
      </measure>
    <measure number="2" width="215.25">
      <note default-x="12.5" default-y="-70">
        <pitch>
          <step>F</step>
          <octave>3</octave>
          </pitch>
        <duration>8</duration>
        <voice>1</voice>
        <type>quarter</type>
        <stem>up</stem>
        </note>
      <note default-x="62.74" default-y="-75">
        <pitch>
          <step>E</step>
          <octave>3</octave>
          </pitch>
        <duration>8</duration>
        <voice>1</voice>
        <type>quarter</type>
        <stem>up</stem>
        </note>
      <note default-x="112.97" default-y="-80">
        <pitch>
          <step>D</step>
          <octave>3</octave>
          </pitch>
        <duration>8</duration>
        <voice>1</voice>
        <type>quarter</type>
        <stem>up</stem>
        </note>
      <note default-x="163.21" default-y="-85">
        <pitch>
          <step>C</step>
          <octave>3</octave>
          </pitch>
        <duration>8</duration>
        <voice>1</voice>
        <type>quarter</type>
        <stem>up</stem>
        </note>
      </measure>
    <measure number="3" width="231.99">
      <note default-x="12.5" default-y="-90">
        <pitch>
          <step>B</step>
          <octave>2</octave>
          </pitch>
        <duration>8</duration>
        <voice>1</voice>
        <type>quarter</type>
        <stem>up</stem>
        </note>
      <note default-x="62.74" default-y="-95">
        <pitch>
          <step>A</step>
          <octave>2</octave>
          </pitch>
        <duration>8</duration>
        <voice>1</voice>
        <type>quarter</type>
        <stem>up</stem>
        </note>
      <note default-x="112.97" default-y="-100">
        <pitch>
          <step>G</step>
          <octave>2</octave>
          </pitch>
        <duration>8</duration>
        <voice>1</voice>
        <type>quarter</type>
        <stem>up</stem>
        </note>
      <note default-x="163.21" default-y="-95">
        <pitch>
          <step>A</step>
          <octave>2</octave>
          </pitch>
        <duration>4</duration>
        <voice>1</voice>
        <type>eighth</type>
        <stem>up</stem>
        <beam number="1">begin</beam>
        </note>
      <note default-x="196.7" default-y="-90">
        <pitch>
          <step>B</step>
          <octave>2</octave>
          </pitch>
        <duration>4</duration>
        <voice>1</voice>
        <type>eighth</type>
        <stem>up</stem>
        <beam number="1">end</beam>
        </note>
      </measure>
    <measure number="4" width="282.23">
      <note default-x="12.5" default-y="-85">
        <pitch>
          <step>C</step>
          <octave>3</octave>
          </pitch>
        <duration>4</duration>
        <voice>1</voice>
        <type>eighth</type>
        <stem>up</stem>
        <beam number="1">begin</beam>
        </note>
      <note default-x="45.99" default-y="-80">
        <pitch>
          <step>D</step>
          <octave>3</octave>
          </pitch>
        <duration>4</duration>
        <voice>1</voice>
        <type>eighth</type>
        <stem>up</stem>
        <beam number="1">continue</beam>
        </note>
      <note default-x="79.48" default-y="-75">
        <pitch>
          <step>E</step>
          <octave>3</octave>
          </pitch>
        <duration>4</duration>
        <voice>1</voice>
        <type>eighth</type>
        <stem>up</stem>
        <beam number="1">continue</beam>
        </note>
      <note default-x="112.97" default-y="-70">
        <pitch>
          <step>F</step>
          <octave>3</octave>
          </pitch>
        <duration>4</duration>
        <voice>1</voice>
        <type>eighth</type>
        <stem>up</stem>
        <beam number="1">end</beam>
        </note>
      <note default-x="146.46" default-y="-65">
        <pitch>
          <step>G</step>
          <octave>3</octave>
          </pitch>
        <duration>4</duration>
        <voice>1</voice>
        <type>eighth</type>
        <stem>up</stem>
        <beam number="1">begin</beam>
        </note>
      <note default-x="179.95" default-y="-60">
        <pitch>
          <step>A</step>
          <octave>3</octave>
          </pitch>
        <duration>4</duration>
        <voice>1</voice>
        <type>eighth</type>
        <stem>up</stem>
        <beam number="1">continue</beam>
        </note>
      <note default-x="213.45" default-y="-55">
        <pitch>
          <step>B</step>
          <octave>3</octave>
          </pitch>
        <duration>4</duration>
        <voice>1</voice>
        <type>eighth</type>
        <stem>up</stem>
        <beam number="1">continue</beam>
        </note>
      <note default-x="246.94" default-y="-50">
        <pitch>
          <step>C</step>
          <octave>4</octave>
          </pitch>
        <duration>4</duration>
        <voice>1</voice>
        <type>eighth</type>
        <stem>up</stem>
        <beam number="1">end</beam>
        </note>
      </measure>
    <measure number="5" width="388.13">
      <print new-system="yes">
        <system-layout>
          <system-margins>
            <left-margin>0</left-margin>
            <right-margin>0</right-margin>
            </system-margins>
          <system-distance>185</system-distance>
          </system-layout>
        </print>
      <note default-x="58.09" default-y="-50">
        <pitch>
          <step>C</step>
          <octave>4</octave>
          </pitch>
        <duration>2</duration>
        <voice>1</voice>
        <type>16th</type>
        <stem>up</stem>
        <beam number="1">begin</beam>
        <beam number="2">begin</beam>
        </note>
      <note default-x="80.19" default-y="-55">
        <pitch>
          <step>B</step>
          <octave>3</octave>
          </pitch>
        <duration>2</duration>
        <voice>1</voice>
        <type>16th</type>
        <stem>up</stem>
        <beam number="1">continue</beam>
        <beam number="2">continue</beam>
        </note>
      <note default-x="102.28" default-y="-60">
        <pitch>
          <step>A</step>
          <octave>3</octave>
          </pitch>
        <duration>2</duration>
        <voice>1</voice>
        <type>16th</type>
        <stem>up</stem>
        <beam number="1">end</beam>
        <beam number="2">end</beam>
        </note>
      <note default-x="121.66" default-y="-20">
        <rest/>
        <duration>2</duration>
        <voice>1</voice>
        <type>16th</type>
        </note>
      <note default-x="141.03" default-y="-65">
        <pitch>
          <step>G</step>
          <octave>3</octave>
          </pitch>
        <duration>2</duration>
        <voice>1</voice>
        <type>16th</type>
        <stem>up</stem>
        <beam number="1">begin</beam>
        <beam number="2">begin</beam>
        </note>
      <note default-x="163.12" default-y="-70">
        <pitch>
          <step>F</step>
          <octave>3</octave>
          </pitch>
        <duration>2</duration>
        <voice>1</voice>
        <type>16th</type>
        <stem>up</stem>
        <beam number="1">continue</beam>
        <beam number="2">continue</beam>
        </note>
      <note default-x="185.22" default-y="-75">
        <pitch>
          <step>E</step>
          <octave>3</octave>
          </pitch>
        <duration>2</duration>
        <voice>1</voice>
        <type>16th</type>
        <stem>up</stem>
        <beam number="1">continue</beam>
        <beam number="2">continue</beam>
        </note>
      <note default-x="207.31" default-y="-80">
        <pitch>
          <step>D</step>
          <octave>3</octave>
          </pitch>
        <duration>2</duration>
        <voice>1</voice>
        <type>16th</type>
        <stem>up</stem>
        <beam number="1">end</beam>
        <beam number="2">end</beam>
        </note>
      <note default-x="229.4" default-y="-85">
        <pitch>
          <step>C</step>
          <octave>3</octave>
          </pitch>
        <duration>1</duration>
        <voice>1</voice>
        <type>32nd</type>
        <stem>up</stem>
        <beam number="1">begin</beam>
        <beam number="2">begin</beam>
        <beam number="3">begin</beam>
        </note>
      <note default-x="251.5" default-y="-90">
        <pitch>
          <step>B</step>
          <octave>2</octave>
          </pitch>
        <duration>1</duration>
        <voice>1</voice>
        <type>32nd</type>
        <stem>up</stem>
        <beam number="1">continue</beam>
        <beam number="2">continue</beam>
        <beam number="3">continue</beam>
        </note>
      <note default-x="273.59" default-y="-95">
        <pitch>
          <step>A</step>
          <octave>2</octave>
          </pitch>
        <duration>1</duration>
        <voice>1</voice>
        <type>32nd</type>
        <stem>up</stem>
        <beam number="1">continue</beam>
        <beam number="2">continue</beam>
        <beam number="3">continue</beam>
        </note>
      <note default-x="295.69" default-y="-100">
        <pitch>
          <step>G</step>
          <octave>2</octave>
          </pitch>
        <duration>1</duration>
        <voice>1</voice>
        <type>32nd</type>
        <stem>up</stem>
        <beam number="1">end</beam>
        <beam number="2">end</beam>
        <beam number="3">end</beam>
        </note>
      <note default-x="313.68" default-y="-20">
        <rest/>
        <duration>4</duration>
        <voice>1</voice>
        <type>eighth</type>
        </note>
      <note default-x="342.74" default-y="-20">
        <rest/>
        <duration>8</duration>
        <voice>1</voice>
        <type>quarter</type>
        </note>
      </measure>
    <measure number="6" width="112.38">
      <note default-x="48.79" default-y="-10">
        <rest measure="yes"/>
        <duration>32</duration>
        <voice>1</voice>
        </note>
      </measure>
    <measure number="7" width="112.38">
      <note default-x="48.79" default-y="-10">
        <rest measure="yes"/>
        <duration>32</duration>
        <voice>1</voice>
        </note>
      </measure>
    <measure number="8" width="112.38">
      <note default-x="48.79" default-y="-10">
        <rest measure="yes"/>
        <duration>32</duration>
        <voice>1</voice>
        </note>
      </measure>
    <measure number="9" width="112.38">
      <note default-x="48.79" default-y="-10">
        <rest measure="yes"/>
        <duration>32</duration>
        <voice>1</voice>
        </note>
      </measure>
    <measure number="10" width="112.38">
      <note default-x="48.79" default-y="-10">
        <rest measure="yes"/>
        <duration>32</duration>
        <voice>1</voice>
        </note>
      </measure>
    <measure number="11" width="112.38">
      <note default-x="48.79" default-y="-10">
        <rest measure="yes"/>
        <duration>32</duration>
        <voice>1</voice>
        </note>
      </measure>
    <measure number="12" width="130.33">
      <print new-system="yes">
        <system-layout>
          <system-margins>
            <left-margin>0</left-margin>
            <right-margin>0</right-margin>
            </system-margins>
          <system-distance>185</system-distance>
          </system-layout>
        </print>
      <note default-x="74.31" default-y="-10">
        <rest measure="yes"/>
        <duration>32</duration>
        <voice>1</voice>
        </note>
      </measure>
    <measure number="13" width="84.74">
      <note default-x="34.97" default-y="-10">
        <rest measure="yes"/>
        <duration>32</duration>
        <voice>1</voice>
        </note>
      </measure>
    <measure number="14" width="84.74">
      <note default-x="34.97" default-y="-10">
        <rest measure="yes"/>
        <duration>32</duration>
        <voice>1</voice>
        </note>
      </measure>
    <measure number="15" width="84.74">
      <note default-x="34.97" default-y="-10">
        <rest measure="yes"/>
        <duration>32</duration>
        <voice>1</voice>
        </note>
      </measure>
    <measure number="16" width="84.74">
      <note default-x="34.97" default-y="-10">
        <rest measure="yes"/>
        <duration>32</duration>
        <voice>1</voice>
        </note>
      </measure>
    <measure number="17" width="84.74">
      <note default-x="34.97" default-y="-10">
        <rest measure="yes"/>
        <duration>32</duration>
        <voice>1</voice>
        </note>
      </measure>
    <measure number="18" width="84.74">
      <note default-x="34.97" default-y="-10">
        <rest measure="yes"/>
        <duration>32</duration>
        <voice>1</voice>
        </note>
      </measure>
    <measure number="19" width="84.74">
      <note default-x="34.97" default-y="-10">
        <rest measure="yes"/>
        <duration>32</duration>
        <voice>1</voice>
        </note>
      </measure>
    <measure number="20" width="84.74">
      <note default-x="34.97" default-y="-10">
        <rest measure="yes"/>
        <duration>32</duration>
        <voice>1</voice>
        </note>
      </measure>
    <measure number="21" width="84.74">
      <note default-x="34.97" default-y="-10">
        <rest measure="yes"/>
        <duration>32</duration>
        <voice>1</voice>
        </note>
      </measure>
    <measure number="22" width="84.74">
      <note default-x="34.97" default-y="-10">
        <rest measure="yes"/>
        <duration>32</duration>
        <voice>1</voice>
        </note>
      </measure>
    <measure number="23" width="84.74">
      <note default-x="34.97" default-y="-10">
        <rest measure="yes"/>
        <duration>32</duration>
        <voice>1</voice>
        </note>
      </measure>
    <measure number="24" width="157.55">
      <print new-system="yes">
        <system-layout>
          <system-margins>
            <left-margin>0</left-margin>
            <right-margin>0</right-margin>
            </system-margins>
          <system-distance>185</system-distance>
          </system-layout>
        </print>
      <note default-x="87.93" default-y="-10">
        <rest measure="yes"/>
        <duration>32</duration>
        <voice>1</voice>
        </note>
      </measure>
    <measure number="25" width="111.96">
      <note default-x="48.58" default-y="-10">
        <rest measure="yes"/>
        <duration>32</duration>
        <voice>1</voice>
        </note>
      </measure>
    <measure number="26" width="111.96">
      <note default-x="48.58" default-y="-10">
        <rest measure="yes"/>
        <duration>32</duration>
        <voice>1</voice>
        </note>
      </measure>
    <measure number="27" width="111.96">
      <note default-x="48.58" default-y="-10">
        <rest measure="yes"/>
        <duration>32</duration>
        <voice>1</voice>
        </note>
      </measure>
    <measure number="28" width="111.96">
      <note default-x="48.58" default-y="-10">
        <rest measure="yes"/>
        <duration>32</duration>
        <voice>1</voice>
        </note>
      </measure>
    <measure number="29" width="111.96">
      <note default-x="48.58" default-y="-10">
        <rest measure="yes"/>
        <duration>32</duration>
        <voice>1</voice>
        </note>
      </measure>
    <measure number="30" width="111.96">
      <note default-x="48.58" default-y="-10">
        <rest measure="yes"/>
        <duration>32</duration>
        <voice>1</voice>
        </note>
      </measure>
    <measure number="31" width="111.96">
      <note default-x="48.58" default-y="-10">
        <rest measure="yes"/>
        <duration>32</duration>
        <voice>1</voice>
        </note>
      </measure>
    <measure number="32" width="121.16">
      <note default-x="48.58" default-y="-10">
        <rest measure="yes"/>
        <duration>32</duration>
        <voice>1</voice>
        </note>
      <barline location="right">
        <bar-style>light-heavy</bar-style>
        </barline>
      </measure>
    </part>
  </score-partwise>
